<svg width="200" height="200" viewBox="0 0 200 200" fill="none" xmlns="http://www.w3.org/2000/svg">
<mask id="mask0" mask-type="alpha" maskUnits="userSpaceOnUse" x="0" y="0" width="200" height="200">
<circle cx="100" cy="100" r="100" fill="#C4C4C4"/>
</mask>
<g mask="url(#mask0)">
<path d="M200 0H0V200H200V0Z" transform="translate(0.665039)" fill="#EFF2F4"/>
<path d="M20.9333 0H0.833333C0.373096 0 0 0.373096 0 0.833333C0 1.29357 0.373096 1.66667 0.833333 1.66667H20.9333C21.3936 1.66667 21.7667 1.29357 21.7667 0.833333C21.7667 0.373096 21.3936 0 20.9333 0Z" transform="translate(50.0791 108.334)" fill="#FAFBFC"/>
<path d="M20.9333 0H0.833333C0.373096 0 0 0.373096 0 0.833333C0 1.29357 0.373096 1.66667 0.833333 1.66667H20.9333C21.3936 1.66667 21.7667 1.29357 21.7667 0.833333C21.7667 0.373096 21.3936 0 20.9333 0Z" transform="translate(55.4717 106.666)" fill="#FAFBFC"/>
<path d="M20.9333 0H0.833333C0.373096 0 0 0.373096 0 0.833333C0 1.29357 0.373096 1.66667 0.833333 1.66667H20.9333C21.3936 1.66667 21.7667 1.29357 21.7667 0.833333C21.7667 0.373096 21.3936 0 20.9333 0Z" transform="translate(44.665 103.334)" fill="#FAFBFC"/>
<path d="M20.9333 0H0.833333C0.373096 0 0 0.373096 0 0.833333C0 1.29357 0.373096 1.66667 0.833333 1.66667H20.9333C21.3936 1.66667 21.7667 1.29357 21.7667 0.833333C21.7667 0.373096 21.3936 0 20.9333 0Z" transform="translate(50.3789 105)" fill="#FAFBFC"/>
<path d="M20.9333 0H0.833333C0.373096 0 0 0.373096 0 0.833333C0 1.29357 0.373096 1.66667 0.833333 1.66667H20.9333C21.3936 1.66667 21.7667 1.29357 21.7667 0.833333C21.7667 0.373096 21.3936 0 20.9333 0Z" transform="translate(146.079 37)" fill="#FAFBFC"/>
<path d="M20.9333 0H0.833333C0.373096 0 0 0.373096 0 0.833333C0 1.29357 0.373096 1.66667 0.833333 1.66667H20.9333C21.3936 1.66667 21.7667 1.29357 21.7667 0.833333C21.7667 0.373096 21.3936 0 20.9333 0Z" transform="translate(151.472 35.332)" fill="#FAFBFC"/>
<path d="M20.9333 0H0.833333C0.373096 0 0 0.373096 0 0.833333C0 1.29357 0.373096 1.66667 0.833333 1.66667H20.9333C21.3936 1.66667 21.7667 1.29357 21.7667 0.833333C21.7667 0.373096 21.3936 0 20.9333 0Z" transform="translate(140.665 32)" fill="#FAFBFC"/>
<path d="M20.9333 0H0.833333C0.373096 0 0 0.373096 0 0.833333C0 1.29357 0.373096 1.66667 0.833333 1.66667H20.9333C21.3936 1.66667 21.7667 1.29357 21.7667 0.833333C21.7667 0.373096 21.3936 0 20.9333 0Z" transform="translate(146.38 33.666)" fill="#FAFBFC"/>
<path opacity="0.46" d="M0 0V5.66667L3.81333 8.33333V0H0Z" transform="translate(145.52 132.332)" fill="#454956" stroke="#454956" stroke-width="0.5" stroke-miterlimit="10"/>
<path d="M0.666667 13.3333H11.3333L16 12V2H39L38.6667 0H0.286662L0 13.3333H0.666667Z" transform="translate(49.998 115.998)" fill="#EDF1FE"/>
<path d="M11.2267 14V0H0V13.32H11.2267" transform="translate(50.4395 115.998)" fill="#CDD5F8"/>
<path opacity="0.41" d="M0 29.3333L47.3333 18H148.667V3.33333H47.3333L0 0V29.3333Z" transform="translate(0.665039 112.668)" fill="#B5C4F4"/>
<path d="M0 20.6667L18.6667 13.3333H30L59.3333 0H89.3333L88 2.66667H109.333L140 29.3333H0V20.6667Z" transform="translate(0.665039 132.668)" fill="#8FA2E5"/>
<path d="M1.52 1H28.6667V0H0L1.52 1Z" transform="translate(129.333 132.332)" fill="#D9DCE8"/>
<path d="M0 0L60.6667 18H174V20H60.6667L0 4.66667V0Z" transform="translate(0.665039 92.668)" fill="#EDF1FE"/>
<path d="M0 21.28L18.6667 13.6533H30L59.3333 0.319997H88.8267L87.7067 2.27333V2.98666H109.333L138.14 28.6533H139.62L110 2.32L88.9933 0H59.12L30 12.9867H18.78L0 20.52V21.28Z" transform="translate(0.665039 133.012)" fill="#D9DCE8"/>
<path d="M0 0L61 15H163.667L164 16H48L0 8.66667V0Z" transform="translate(0.665039 97.332)" fill="#9AABDB"/>
<path d="M0 0L60.3333 19.6667H173L172.667 21.3333H60.6667L0 3.33333V0Z" transform="translate(0.665039 89.334)" fill="#8398C6"/>
<path d="M0 0.0999959V23.5867L2 22.98V0L0 0.0999959Z" transform="translate(20.999 113.334)" fill="#CDD5F8"/>
<path d="M1.65334 0.0199992L0 0V22.3333L1.85333 21.9467L1.65334 0.0199992Z" transform="translate(22.999 114.002)" fill="#EDF1FE"/>
<path d="M0.333333 12.2333L0 24L19 16.3333H30.3333L59.3333 3.33333H89.3333L88 5.66667H110L140 32H0V70H200V40.6667L166 26C166 26 169.333 22 165.333 19.3333C161.333 16.6667 156 18 154 16C152 14 148 9.33333 145.333 8.66667L134.667 6H138L129.333 2.66667H158L149.333 0V0.666667H48L0.333333 12.2333Z" transform="translate(0.332031 129.668)" fill="#E8EAEF"/>
<path d="M0 0V17.9267L2.22666 17.3733V0.160004L0 0Z" transform="translate(36.2588 115.174)" fill="#CDD5F8"/>
<path d="M1.7 0.120005L0 0V16.9933L1.96 16.68L1.7 0.120005Z" transform="translate(38.6123 115.34)" fill="#EDF1FE"/>
<path d="M1.35333 13.74V0.406667L0 0L0.0199992 14.4067L1.35333 13.74Z" transform="translate(46.9795 115.926)" fill="#CDD5F8"/>
<path d="M1.66667 0H0V14H1.66667V0Z" transform="translate(48.333 115.998)" fill="#EDF1FE"/>
<path d="M0 0L48 8H164V10.6667H47.3333L0 7.33333V0Z" transform="translate(0.665039 105.332)" fill="#B2BEEA"/>
<path d="M1.66667 0H0V15H1.66667V0Z" transform="translate(107.999 115.998)" fill="#CCD7F2"/>
<path d="M1.42 0H0V15H1.42V0Z" transform="translate(128.245 115.998)" fill="#CCD7F2"/>
<path d="M1.71999 0H0V14.6667H1.71999V0Z" transform="translate(147.946 115.998)" fill="#CCD7F2"/>
<path d="M1.16667 0H0V15H1.16667V0Z" transform="translate(67.832 115.998)" fill="#CCD7F2"/>
<path d="M1 0H0V15H1V0Z" transform="translate(87.999 115.998)" fill="#CCD7F2"/>
<path d="M87.9133 0H3.5C1.567 0 0 1.567 0 3.5C0 5.433 1.567 7 3.5 7H87.9133C89.8463 7 91.4133 5.433 91.4133 3.5C91.4133 1.567 89.8463 0 87.9133 0Z" transform="translate(-48.001 31.666)" fill="#FAFBFC"/>
<path d="M87.9133 0H3.5C1.567 0 0 1.567 0 3.5C0 5.433 1.567 7 3.5 7H87.9133C89.8463 7 91.4133 5.433 91.4133 3.5C91.4133 1.567 89.8463 0 87.9133 0Z" transform="translate(-39.3545 24.668)" fill="#FAFBFC"/>
<path d="M87.9133 0H3.5C1.567 0 0 1.567 0 3.5C0 5.433 1.567 7 3.5 7H87.9133C89.8463 7 91.4133 5.433 91.4133 3.5C91.4133 1.567 89.8463 0 87.9133 0Z" transform="translate(-34.001 10.666)" fill="#FAFBFC"/>
<path d="M87.9133 0H3.5C1.567 0 0 1.567 0 3.5C0 5.433 1.567 7 3.5 7H87.9133C89.8463 7 91.4133 5.433 91.4133 3.5C91.4133 1.567 89.8463 0 87.9133 0Z" transform="translate(-46.7686 17.668)" fill="#FAFBFC"/>
<path d="M87.9133 0H3.5C1.567 0 0 1.567 0 3.5C0 5.433 1.567 7 3.5 7H87.9133C89.8463 7 91.4133 5.433 91.4133 3.5C91.4133 1.567 89.8463 0 87.9133 0Z" transform="translate(164.665 82.332)" fill="#FAFBFC"/>
<path d="M87.9133 0H3.5C1.567 0 0 1.567 0 3.5C0 5.433 1.567 7 3.5 7H87.9133C89.8463 7 91.4133 5.433 91.4133 3.5C91.4133 1.567 89.8463 0 87.9133 0Z" transform="translate(173.312 75.332)" fill="#FAFBFC"/>
<path d="M87.9133 0H3.5C1.567 0 0 1.567 0 3.5C0 5.433 1.567 7 3.5 7H87.9133C89.8463 7 91.4133 5.433 91.4133 3.5C91.4133 1.567 89.8463 0 87.9133 0Z" transform="translate(178.666 61.334)" fill="#FAFBFC"/>
<path d="M87.9133 0H3.5C1.567 0 0 1.567 0 3.5C0 5.433 1.567 7 3.5 7H87.9133C89.8463 7 91.4133 5.433 91.4133 3.5C91.4133 1.567 89.8463 0 87.9133 0Z" transform="translate(165.898 68.334)" fill="#FAFBFC"/>
<path d="M33.4933 0H1.33333C0.596954 0 0 0.596954 0 1.33333C0 2.06971 0.596954 2.66667 1.33333 2.66667H33.4933C34.2297 2.66667 34.8267 2.06971 34.8267 1.33333C34.8267 0.596954 34.2297 0 33.4933 0Z" transform="translate(69.998 61.334)" fill="#FAFBFC"/>
<path d="M33.4933 0H1.33333C0.596954 0 0 0.596954 0 1.33333C0 2.06971 0.596954 2.66667 1.33333 2.66667H33.4933C34.2297 2.66667 34.8267 2.06971 34.8267 1.33333C34.8267 0.596954 34.2297 0 33.4933 0Z" transform="translate(78.626 58.666)" fill="#FAFBFC"/>
<path d="M33.4933 0H1.33333C0.596954 0 0 0.596954 0 1.33333C0 2.06971 0.596954 2.66667 1.33333 2.66667H33.4933C34.2297 2.66667 34.8267 2.06971 34.8267 1.33333C34.8267 0.596954 34.2297 0 33.4933 0Z" transform="translate(61.332 53.334)" fill="#FAFBFC"/>
<path d="M33.4933 0H1.33333C0.596954 0 0 0.596954 0 1.33333C0 2.06971 0.596954 2.66667 1.33333 2.66667H33.4933C34.2297 2.66667 34.8267 2.06971 34.8267 1.33333C34.8267 0.596954 34.2297 0 33.4933 0Z" transform="translate(70.4717 55.998)" fill="#FAFBFC"/>
</g>
</svg>
