<svg xmlns="http://www.w3.org/2000/svg" xmlns:xlink="http://www.w3.org/1999/xlink" viewBox="0 0 477.12 300"><defs><style>.cls-1{fill:none;}.cls-2{clip-path:url(#clip-path);}.cls-3{fill:#eff2f4;}.cls-4{fill:#fafbfc;}.cls-5{fill:#454956;stroke:#454956;stroke-miterlimit:10;stroke-width:0.5px;opacity:0.46;}.cls-6{fill:#edf1fe;}.cls-7{fill:#cdd5f8;}.cls-8{fill:#b5c4f4;opacity:0.41;}.cls-9{fill:#8fa2e5;}.cls-10{fill:#d9dce8;}.cls-11{fill:#9aabdb;}.cls-12{fill:#8398c6;}.cls-13{fill:#e8eaef;}.cls-14{fill:#b2beea;}.cls-15{fill:#ccd7f2;}</style><clipPath id="clip-path"><circle class="cls-1" cx="222.5" cy="149.5" r="149.5"/></clipPath></defs><title>stahl-house-empty-state</title><g id="Layer_2" data-name="Layer 2"><g id="Layer_1-2" data-name="Layer 1"><g class="cls-2"><rect class="cls-3" x="73" width="300" height="300"/><rect class="cls-4" x="147.12" y="162.5" width="32.65" height="2.5" rx="1.25" ry="1.25"/><rect class="cls-4" x="155.21" y="160" width="32.65" height="2.5" rx="1.25" ry="1.25"/><rect class="cls-4" x="139" y="155" width="32.65" height="2.5" rx="1.25" ry="1.25"/><rect class="cls-4" x="147.57" y="157.5" width="32.65" height="2.5" rx="1.25" ry="1.25"/><rect class="cls-4" x="291.12" y="55.5" width="32.65" height="2.5" rx="1.25" ry="1.25"/><rect class="cls-4" x="299.21" y="53" width="32.65" height="2.5" rx="1.25" ry="1.25"/><rect class="cls-4" x="283" y="48" width="32.65" height="2.5" rx="1.25" ry="1.25"/><rect class="cls-4" x="291.57" y="50.5" width="32.65" height="2.5" rx="1.25" ry="1.25"/><polygon class="cls-5" points="290.28 198.5 290.28 207 296 211 296 198.5 290.28 198.5"/><polygon class="cls-6" points="148 194 164 194 171 192 171 177 205.5 177 205 174 147.43 174 147 194 148 194"/><polyline class="cls-7" points="164.5 195 164.5 174 147.66 174 147.66 193.98 164.5 193.98"/><polygon class="cls-8" points="73 213 144 196 296 196 296 174 144 174 73 169 73 213"/><polygon class="cls-9" points="73 230 101 219 118 219 162 199 207 199 205 203 237 203 283 243 73 243 73 230"/><polygon class="cls-10" points="268.28 200 309 200 309 198.5 266 198.5 268.28 200"/><polygon class="cls-6" points="73 139 164 166 334 166 334 169 164 169 73 146 73 139"/><polygon class="cls-10" points="73 231.44 101 220 118 220 162 200 206.24 200 204.56 202.93 204.56 204 237 204 280.21 242.5 282.43 242.5 238 203 206.49 199.52 161.68 199.52 118 219 101.17 219 73 230.3 73 231.44"/><polygon class="cls-11" points="73 146 164.5 168.5 318.5 168.5 319 170 145 170 73 159 73 146"/><polygon class="cls-12" points="73 134 163.5 163.5 332.5 163.5 332 166 164 166 73 139 73 134"/><polygon class="cls-7" points="103.5 170.15 103.5 205.38 106.5 204.47 106.5 170 103.5 170.15"/><polygon class="cls-6" points="108.98 171.03 106.5 171 106.5 204.5 109.28 203.92 108.98 171.03"/><path class="cls-13" d="M73,212.85l-.5,17.65L101,219h17l43.5-19.5h45l-2,3.5h33l45,39.5H72.5v57h300v-44l-51-22s5-6-1-10-14-2-17-5-9-10-13-11l-16-4h5l-13-5h43l-13-4v1h-152Z"/><polygon class="cls-7" points="126.39 172.76 126.39 199.65 129.73 198.82 129.73 173 126.39 172.76"/><polygon class="cls-6" points="132.47 173.19 129.92 173.01 129.92 198.5 132.86 198.03 132.47 173.19"/><polygon class="cls-7" points="144.5 194.5 144.5 174.5 142.47 173.89 142.5 195.5 144.5 194.5"/><rect class="cls-6" x="144.5" y="174" width="2.5" height="21"/><polygon class="cls-14" points="73 158 145 170 319 170 319 174 144 174 73 169 73 158"/><rect class="cls-15" x="234" y="174" width="2.5" height="22.5"/><rect class="cls-15" x="264.37" y="174" width="2.13" height="22.5"/><rect class="cls-15" x="293.92" y="174" width="2.58" height="22"/><rect class="cls-15" x="173.75" y="174" width="1.75" height="22.5"/><rect class="cls-15" x="204" y="174" width="1.5" height="22.5"/><rect class="cls-4" y="47.5" width="137.12" height="10.5" rx="5.25" ry="5.25"/><rect class="cls-4" x="12.97" y="37" width="137.12" height="10.5" rx="5.25" ry="5.25"/><rect class="cls-4" x="21" y="16" width="137.12" height="10.5" rx="5.25" ry="5.25"/><rect class="cls-4" x="1.85" y="26.5" width="137.12" height="10.5" rx="5.25" ry="5.25"/><rect class="cls-4" x="319" y="123.5" width="137.12" height="10.5" rx="5.25" ry="5.25"/><rect class="cls-4" x="331.97" y="113" width="137.12" height="10.5" rx="5.25" ry="5.25"/><rect class="cls-4" x="340" y="92" width="137.12" height="10.5" rx="5.25" ry="5.25"/><rect class="cls-4" x="320.85" y="102.5" width="137.12" height="10.5" rx="5.25" ry="5.25"/><rect class="cls-4" x="177" y="92" width="52.24" height="4" rx="2" ry="2"/><rect class="cls-4" x="189.94" y="88" width="52.24" height="4" rx="2" ry="2"/><rect class="cls-4" x="164" y="80" width="52.24" height="4" rx="2" ry="2"/><rect class="cls-4" x="177.71" y="84" width="52.24" height="4" rx="2" ry="2"/></g></g></g></svg>