<svg width="60" height="63" viewBox="0 0 60 63" fill="none" xmlns="http://www.w3.org/2000/svg">
<rect width="60" height="63" fill="black" fill-opacity="0"/>
<circle cx="30" cy="33" r="30" fill="#4A4A4A"/>
<path d="M40.8 43.24C40.8 45.3733 39.9067 46.9467 38.12 47.96C36.3333 48.9733 33.6133 49.48 29.96 49.48C28.1733 49.48 26.6667 49.36 25.44 49.12C24.24 48.9067 23.2533 48.5867 22.48 48.16C21.7333 47.7333 21.1867 47.2133 20.84 46.6C20.52 45.9867 20.36 45.2933 20.36 44.52C20.36 43.4 20.6667 42.52 21.28 41.88C21.92 41.2667 22.8133 40.8133 23.96 40.52V40.12C23.2667 39.8533 22.7067 39.48 22.28 39C21.88 38.52 21.68 37.8933 21.68 37.12C21.68 36.1067 22.0267 35.3467 22.72 34.84C23.4133 34.3067 24.3067 33.9067 25.4 33.64V33.44C24.1467 32.8533 23.1733 32.0267 22.48 30.96C21.7867 29.8933 21.44 28.6133 21.44 27.12C21.44 26.0267 21.64 25.04 22.04 24.16C22.44 23.2533 23 22.4933 23.72 21.88C24.4667 21.24 25.3467 20.7467 26.36 20.4C27.4 20.0533 28.56 19.88 29.84 19.88C31.28 19.88 32.5733 20.1067 33.72 20.56V19.88C33.72 19.08 33.9467 18.4133 34.4 17.88C34.8533 17.3467 35.5467 17.08 36.48 17.08H40.24V20.52H35.44V21.48C36.3467 22.0933 37.04 22.88 37.52 23.84C38 24.7733 38.24 25.8667 38.24 27.12C38.24 28.2133 38.04 29.2133 37.64 30.12C37.24 31 36.6667 31.76 35.92 32.4C35.2 33.0133 34.32 33.4933 33.28 33.84C32.2667 34.16 31.12 34.32 29.84 34.32C28.9333 34.32 28.08 34.24 27.28 34.08C26.8 34.2133 26.32 34.44 25.84 34.76C25.36 35.08 25.12 35.52 25.12 36.08C25.12 36.72 25.4267 37.12 26.04 37.28C26.6533 37.44 27.4133 37.52 28.32 37.52H32.96C35.7333 37.52 37.7333 38.0533 38.96 39.12C40.1867 40.16 40.8 41.5333 40.8 43.24ZM36.72 43.52C36.72 42.8267 36.44 42.2667 35.88 41.84C35.32 41.44 34.3067 41.24 32.84 41.24H25.68C24.6667 41.72 24.16 42.4933 24.16 43.56C24.16 44.3333 24.48 45 25.12 45.56C25.7867 46.12 26.88 46.4 28.4 46.4H31.64C33.2933 46.4 34.5467 46.1467 35.4 45.64C36.28 45.16 36.72 44.4533 36.72 43.52ZM29.84 31.32C31.2533 31.32 32.2933 30.9867 32.96 30.32C33.6267 29.6533 33.96 28.76 33.96 27.64V26.56C33.96 25.44 33.6267 24.5467 32.96 23.88C32.2933 23.2133 31.2533 22.88 29.84 22.88C28.4267 22.88 27.3867 23.2133 26.72 23.88C26.0533 24.5467 25.72 25.44 25.72 26.56V27.64C25.72 28.76 26.0533 29.6533 26.72 30.32C27.3867 30.9867 28.4267 31.32 29.84 31.32Z" fill="white"/>
</svg>
